<?xml version="1.0" standalone="no"?>
<!DOCTYPE svg PUBLIC "-//W3C//DTD SVG 20010904//EN"
 "http://www.w3.org/TR/2001/REC-SVG-20010904/DTD/svg10.dtd">
<svg version="1.0" xmlns="http://www.w3.org/2000/svg"
 width="150.000000pt" height="335.000000pt" viewBox="0 0 150.000000 335.000000"
 preserveAspectRatio="xMidYMid meet">

<g transform="translate(0.000000,335.000000) scale(0.100000,-0.100000)"
fill="#000000" stroke="none">
<path d="M0 1675 l0 -1675 750 0 750 0 0 1675 0 1675 -750 0 -750 0 0 -1675z
m470 751 c0 -2 -8 -10 -17 -17 -16 -13 -17 -12 -4 4 13 16 21 21 21 13z m-42
-13 c-50 -104 -67 -130 -112 -168 -48 -43 -76 -56 -76 -36 0 9 30 25 43 23 4
-1 7 4 7 11 0 7 16 31 36 53 19 21 49 58 65 82 26 36 47 57 37 35z m-98 -198
c0 -15 -49 -45 -72 -45 -7 0 -2 9 12 20 14 11 31 18 37 15 7 -2 12 -1 12 3 -2
12 1 22 6 22 3 0 5 -7 5 -15z m444 -21 c3 -8 2 -12 -4 -9 -6 3 -10 1 -10 -5 0
-7 -6 -10 -14 -7 -10 4 -12 0 -8 -15 4 -18 6 -18 14 -4 10 19 34 21 44 4 4 -6
3 -8 -2 -5 -6 3 -16 2 -24 -3 -12 -8 -10 -13 10 -27 14 -10 28 -17 33 -15 4 1
6 -3 5 -10 -4 -17 93 -67 116 -61 14 4 18 1 13 -11 -4 -9 -1 -16 4 -16 6 0 24
-14 39 -31 l27 -32 -73 -73 c-40 -40 -78 -83 -84 -96 -7 -13 3 -5 21 17 39 47
113 119 149 145 25 18 26 18 69 -22 l43 -40 -44 -47 c-68 -71 -132 -158 -174
-238 -20 -40 -42 -73 -48 -73 -16 0 -116 69 -116 79 0 5 4 11 8 13 4 2 23 29
41 61 18 33 27 56 22 52 -6 -3 -18 -20 -27 -38 -15 -28 -17 -29 -30 -13 -15
21 -11 32 29 101 16 28 30 57 30 65 0 32 -3 39 -16 34 -8 -3 -13 6 -15 25 -1
17 -6 41 -11 53 -4 13 -7 33 -6 46 1 12 -2 22 -7 22 -4 0 -8 12 -9 28 -1 15
-5 38 -9 52 -6 16 -7 4 -4 -35 3 -33 1 -71 -4 -85 l-10 -25 -11 28 c-6 16 -11
45 -11 65 0 32 -3 37 -24 37 -13 0 -22 -2 -20 -4 2 -3 -8 -17 -22 -32 -26 -27
-44 -30 -44 -8 0 6 5 7 10 4 6 -3 10 1 10 9 0 8 -4 18 -10 21 -5 3 -10 11 -10
16 0 6 4 8 9 5 4 -3 6 5 4 18 -7 34 49 91 75 77 23 -12 55 -8 60 7 5 16 9 15
16 -4z m-509 -52 c-6 -4 -23 -18 -38 -32 -21 -18 -26 -20 -21 -7 3 10 18 24
33 32 29 16 40 19 26 7z m560 -12 c3 -5 1 -10 -4 -10 -6 0 -11 5 -11 10 0 6 2
10 4 10 3 0 8 -4 11 -10z m-395 -13 c0 -9 9 -12 28 -9 18 2 35 -4 51 -17 27
-23 43 -26 71 -11 16 8 18 5 22 -28 6 -47 1 -61 -20 -57 -9 2 -17 4 -17 5 0 1
-10 3 -22 4 -19 2 -21 0 -10 -12 6 -8 12 -25 12 -37 1 -16 -4 -21 -17 -17 -10
2 -18 -1 -18 -7 0 -6 7 -11 15 -11 10 0 15 -10 16 -27 0 -17 3 -22 6 -13 3 8
11 18 17 22 8 5 8 8 0 8 -6 0 -9 13 -6 30 2 16 8 28 12 25 5 -3 11 1 14 7 2 7
4 4 4 -7 -2 -37 2 -55 12 -55 6 0 6 9 0 24 -9 24 3 46 25 46 7 0 16 9 21 20 9
20 9 20 23 -2 13 -21 13 -22 -2 -9 -20 16 -20 14 -6 -27 6 -18 15 -29 20 -26
5 3 9 0 9 -5 0 -6 -6 -11 -12 -11 -9 0 -9 -3 1 -9 8 -5 20 -7 28 -4 8 3 13 -2
14 -13 0 -11 2 -30 5 -43 2 -13 0 -29 -6 -36 -6 -7 -9 -17 -8 -23 6 -18 -37
-102 -52 -102 -12 0 -12 -2 -2 -8 10 -7 7 -15 -10 -37 -21 -27 -21 -28 -3 -22
20 7 20 7 1 -8 -11 -8 -23 -15 -28 -15 -14 0 -48 39 -48 55 0 9 -9 15 -25 15
-29 0 -36 34 -9 44 9 4 14 9 11 13 -4 3 -18 -2 -33 -11 -14 -10 -27 -16 -28
-14 -35 53 -37 58 -21 64 18 7 20 30 3 40 -8 5 -9 2 -5 -9 4 -11 -1 -20 -14
-27 -11 -6 -17 -15 -14 -19 7 -12 -19 -21 -33 -13 -5 4 -11 32 -13 62 -3 71
-7 79 -38 93 -26 11 -26 11 -3 15 13 2 29 -2 37 -8 8 -6 19 -9 26 -5 6 4 15 2
19 -5 5 -8 10 -2 15 18 7 35 1 52 -20 52 -8 0 -11 -7 -8 -20 3 -11 1 -20 -5
-20 -16 0 -22 26 -9 40 10 10 6 11 -18 6 -28 -6 -29 -5 -11 9 13 10 23 12 31
5 7 -6 19 -8 27 -5 8 3 28 7 44 8 25 2 29 7 29 32 0 28 -2 30 -40 30 -35 1
-46 -6 -92 -52 l-51 -52 -16 40 c-18 45 -20 69 -6 69 5 0 29 18 51 40 41 40
79 52 79 27z m280 -94 c0 -26 29 -83 42 -83 4 0 14 -13 23 -29 13 -27 13 -29
-3 -26 -9 2 -19 4 -22 4 -3 1 2 6 10 11 9 6 10 10 3 10 -7 0 -16 -7 -21 -16
-8 -15 -22 21 -51 139 -8 33 -8 37 5 26 8 -6 14 -23 14 -36z m19 -355 c-40
-31 -67 -42 -37 -15 15 14 24 28 20 33 -4 4 -1 4 6 0 7 -4 15 0 19 10 5 13 8
14 11 5 3 -8 -6 -22 -19 -33z m132 -209 c-11 -24 -20 -36 -20 -26 -1 20 28 81
35 74 2 -2 -4 -24 -15 -48z m-81 -19 c-6 -11 -9 -24 -7 -28 2 -4 -2 -20 -9
-37 l-14 -30 4 30 c7 51 18 85 27 85 6 0 5 -9 -1 -20z m-56 -234 c-3 -15 -8
-25 -11 -23 -2 3 -1 17 3 31 3 15 8 25 11 23 2 -3 1 -17 -3 -31z"/>
<path d="M670 2143 c0 -31 22 -54 40 -43 13 8 11 11 -7 16 -12 3 -19 12 -17
19 3 7 1 16 -5 20 -6 3 -11 -2 -11 -12z"/>
<path d="M880 2025 c7 -8 18 -15 24 -14 7 0 6 2 -2 6 -6 2 -10 9 -6 14 3 5 -2
9 -12 9 -13 0 -14 -3 -4 -15z"/>
<path d="M506 1981 c-3 -5 1 -14 8 -20 16 -13 32 2 21 19 -8 12 -22 13 -29 1z"/>
<path d="M504 1872 c-1 -20 0 -31 3 -24 3 6 9 10 14 6 5 -3 9 9 9 25 0 46 -25
39 -26 -7z"/>
<path d="M692 1874 c6 -13 16 -20 21 -17 8 5 7 8 0 10 -7 3 -10 10 -7 17 3 7
-2 13 -10 13 -11 0 -12 -5 -4 -23z"/>
<path d="M415 1800 c4 -6 11 -8 16 -5 14 9 11 15 -7 15 -8 0 -12 -5 -9 -10z"/>
<path d="M600 1775 c0 -5 5 -17 10 -25 5 -8 10 -10 10 -5 0 6 -5 17 -10 25 -5
8 -10 11 -10 5z"/>
</g>
</svg>
